<svg width="1024" height="1024" viewBox="0 0 1024 1024" fill="none" xmlns="http://www.w3.org/2000/svg">
<mask id="mask0_3328_732" style="mask-type:alpha" maskUnits="userSpaceOnUse" x="0" y="0" width="1024" height="1024">
<rect width="1024" height="1024" fill="url(#paint0_linear_3328_732)"/>
</mask>
<g mask="url(#mask0_3328_732)">
<rect width="1024" height="1024" rx="80" fill="url(#paint1_linear_3328_732)"/>
<path d="M702 162H322C233.634 162 162 233.634 162 322V702C162 790.366 233.634 862 322 862H702C790.366 862 862 790.366 862 702V322C862 233.634 790.366 162 702 162Z" fill="url(#paint2_linear_3328_732)" fill-opacity="0.8"/>
<path d="M602 100H422C377.817 100 342 135.817 342 180V360C342 404.183 377.817 440 422 440H602C646.183 440 682 404.183 682 360V180C682 135.817 646.183 100 602 100Z" fill="#89B4FA" fill-opacity="0.4"/>
<path d="M512 309C547.346 309 576 280.346 576 245C576 209.654 547.346 181 512 181C476.654 181 448 209.654 448 245C448 280.346 476.654 309 512 309Z" fill="#1E1E2E"/>
<path d="M541 245H482V391H541V245Z" fill="#1E1E2E"/>
<path d="M259.385 781.2C235.305 780.64 216.825 777.28 203.945 771.12C191.345 764.96 182.665 756.28 177.905 745.08C173.425 733.6 171.185 720.02 171.185 704.34V461.16L233.765 451.08V691.74C233.765 702.94 235.725 711.76 239.645 718.2C243.845 724.64 253.365 728.42 268.205 729.54L259.385 781.2ZM368.755 782.88C347.195 782.88 328.155 777.98 311.635 768.18C295.395 758.38 282.655 744.8 273.415 727.44C264.455 709.8 259.975 689.36 259.975 666.12C259.975 642.88 264.595 622.58 273.835 605.22C283.355 587.86 296.375 574.42 312.895 564.9C329.415 555.1 348.035 550.2 368.755 550.2C390.035 550.2 408.795 555.1 425.035 564.9C441.275 574.42 454.015 587.86 463.255 605.22C472.495 622.58 477.115 642.88 477.115 666.12C477.115 689.36 472.635 709.8 463.675 727.44C454.715 744.8 442.115 758.38 425.875 768.18C409.915 777.98 390.875 782.88 368.755 782.88ZM368.755 729.12C378.275 729.12 386.255 726.6 392.695 721.56C399.415 716.24 404.455 708.96 407.815 699.72C411.455 690.2 413.275 679 413.275 666.12C413.275 653.24 411.455 642.18 407.815 632.94C404.455 623.7 399.415 616.56 392.695 611.52C386.255 606.48 378.275 603.96 368.755 603.96C359.235 603.96 351.115 606.48 344.395 611.52C337.675 616.56 332.495 623.7 328.855 632.94C325.495 642.18 323.815 653.24 323.815 666.12C323.815 679 325.495 690.2 328.855 699.72C332.495 708.96 337.675 716.24 344.395 721.56C351.115 726.6 359.235 729.12 368.755 729.12ZM596.573 782.88C569.693 782.88 547.713 777.7 530.633 767.34C513.833 756.98 501.373 743.12 493.253 725.76C485.413 708.12 481.493 688.38 481.493 666.54C481.493 645.26 485.973 625.8 494.933 608.16C504.173 590.52 517.193 576.52 533.993 566.16C551.073 555.52 571.513 550.2 595.313 550.2C607.073 550.2 617.853 551.32 627.653 553.56C637.453 555.52 646.973 558.46 656.213 562.38L643.193 612.36C637.313 610.12 630.873 608.16 623.873 606.48C616.873 604.8 609.033 603.96 600.353 603.96C581.873 603.96 568.013 609.7 558.773 621.18C549.813 632.66 545.333 647.78 545.333 666.54C545.333 679.7 547.153 691.04 550.793 700.56C554.433 709.8 560.453 716.94 568.853 721.98C577.533 726.74 588.873 729.12 602.873 729.12C610.433 729.12 618.553 728.42 627.233 727.02C635.913 725.62 643.893 723.38 651.173 720.3L659.993 771.54C652.713 774.62 643.613 777.28 632.693 779.52C621.773 781.76 609.733 782.88 596.573 782.88ZM668.393 777V461.16L730.973 451.08V635.88C737.133 629.16 743.433 622.16 749.873 614.88C756.313 607.6 762.613 600.46 768.773 593.46C775.213 586.18 781.093 579.32 786.413 572.88C792.013 566.44 796.773 560.84 800.693 556.08H875.033C865.233 567.28 855.573 578.2 846.053 588.84C836.533 599.48 826.733 610.12 816.653 620.76C806.853 631.12 796.353 641.9 785.153 653.1C793.553 660.66 802.233 669.62 811.193 679.98C820.153 690.34 828.833 701.26 837.233 712.74C845.633 724.22 853.333 735.56 860.333 746.76C867.333 757.68 873.213 767.76 877.973 777H806.153C800.273 767.2 793.273 756.28 785.153 744.24C777.033 732.2 768.353 720.44 759.113 708.96C749.873 697.48 740.493 687.96 730.973 680.4V777H668.393Z" fill="#89B4FA"/>
<path d="M99.1535 575.7V284.64C106.714 282.4 115.534 280.3 125.614 278.34C135.974 276.38 146.614 274.84 157.534 273.72C168.734 272.6 179.374 272.04 189.454 272.04C213.814 272.04 234.534 276.8 251.614 286.32C268.694 295.56 281.714 308.86 290.674 326.22C299.914 343.58 304.534 364.02 304.534 387.54C304.534 410.22 300.754 430.24 293.194 447.6C285.914 464.68 275.134 478.12 260.854 487.92C246.574 497.44 228.934 502.2 207.934 502.2C199.254 502.2 191.134 501.36 183.574 499.68C176.014 498 168.734 495.62 161.734 492.54V575.7H99.1535ZM196.174 449.28C203.734 449.28 210.174 448.02 215.494 445.5C221.094 442.98 225.714 439.2 229.354 434.16C233.274 429.12 236.074 422.96 237.754 415.68C239.714 408.12 240.694 399.3 240.694 389.22C240.694 376.34 238.734 365.14 234.814 355.62C230.894 346.1 225.154 338.68 217.594 333.36C210.034 328.04 200.514 325.38 189.034 325.38C183.434 325.38 178.254 325.66 173.494 326.22C168.734 326.5 164.814 326.92 161.734 327.48V440.46C165.654 442.98 170.694 445.08 176.854 446.76C183.294 448.44 189.734 449.28 196.174 449.28ZM417.31 503.88C395.75 503.88 376.71 498.98 360.19 489.18C343.95 479.38 331.21 465.8 321.97 448.44C313.01 430.8 308.53 410.36 308.53 387.12C308.53 363.88 313.15 343.58 322.39 326.22C331.91 308.86 344.93 295.42 361.45 285.9C377.97 276.1 396.59 271.2 417.31 271.2C438.59 271.2 457.35 276.1 473.59 285.9C489.83 295.42 502.57 308.86 511.81 326.22C521.05 343.58 525.67 363.88 525.67 387.12C525.67 410.36 521.19 430.8 512.23 448.44C503.27 465.8 490.67 479.38 474.43 489.18C458.47 498.98 439.43 503.88 417.31 503.88ZM417.31 450.12C426.83 450.12 434.81 447.6 441.25 442.56C447.97 437.24 453.01 429.96 456.37 420.72C460.01 411.2 461.83 400 461.83 387.12C461.83 374.24 460.01 363.18 456.37 353.94C453.01 344.7 447.97 337.56 441.25 332.52C434.81 327.48 426.83 324.96 417.31 324.96C407.79 324.96 399.67 327.48 392.95 332.52C386.23 337.56 381.05 344.7 377.41 353.94C374.05 363.18 372.37 374.24 372.37 387.12C372.37 400 374.05 411.2 377.41 420.72C381.05 429.96 386.23 437.24 392.95 442.56C399.67 447.6 407.79 450.12 417.31 450.12ZM540.547 498V284.64C551.187 281.56 564.907 278.76 581.707 276.24C598.507 273.44 616.147 272.04 634.627 272.04C659.827 272.04 679.427 276.38 693.427 285.06C707.427 293.46 717.227 305.22 722.827 320.34C728.427 335.46 731.227 353.1 731.227 373.26V498H668.647V380.82C668.647 367.38 667.527 356.6 665.287 348.48C663.047 340.36 659.127 334.48 653.527 330.84C648.207 327.2 640.647 325.38 630.847 325.38C626.367 325.38 621.607 325.66 616.567 326.22C611.527 326.5 607.047 326.92 603.127 327.48V498H540.547ZM832.391 576.96C818.951 576.96 805.511 575.7 792.071 573.18C778.631 570.94 766.171 567.86 754.691 563.94L765.611 511.44C775.411 515.36 785.631 518.44 796.271 520.68C807.191 522.92 819.511 524.04 833.231 524.04C845.271 524.04 854.791 522.22 861.791 518.58C869.071 515.22 874.251 510.32 877.331 503.88C880.691 497.44 882.371 490.16 882.371 482.04V474.06C875.651 477.14 868.651 479.52 861.371 481.2C854.371 482.6 846.671 483.3 838.271 483.3C818.111 483.3 800.891 479.24 786.611 471.12C772.611 463 761.971 451.24 754.691 435.84C747.411 420.44 743.771 401.96 743.771 380.4C743.771 358.56 748.251 339.52 757.211 323.28C766.171 307.04 779.051 294.44 795.851 285.48C812.651 276.52 832.811 272.04 856.331 272.04C871.171 272.04 886.851 273.3 903.371 275.82C919.891 278.34 933.751 281.28 944.951 284.64V470.28C944.951 506.4 935.711 533.14 917.231 550.5C899.031 568.14 870.751 576.96 832.391 576.96ZM850.031 432.9C856.471 432.9 862.491 432.06 868.091 430.38C873.691 428.7 878.451 426.74 882.371 424.5V324.54C879.291 323.98 875.651 323.56 871.451 323.28C867.251 322.72 862.351 322.44 856.751 322.44C845.831 322.44 836.731 324.96 829.451 330C822.171 335.04 816.711 341.9 813.071 350.58C809.431 359.26 807.611 369.2 807.611 380.4C807.611 389.08 808.451 396.78 810.131 403.5C812.091 409.94 814.751 415.4 818.111 419.88C821.751 424.08 826.231 427.3 831.551 429.54C836.871 431.78 843.031 432.9 850.031 432.9Z" fill="#89B4FA"/>
<path d="M-51 279.894H347.182L434.303 367M580.273 142L671.182 232.894H1094" stroke="#89B4FA" stroke-width="40" stroke-linecap="round" stroke-linejoin="round"/>
</g>
<defs>
<linearGradient id="paint0_linear_3328_732" x1="512" y1="0" x2="512" y2="1024" gradientUnits="userSpaceOnUse">
<stop stop-color="#313244"/>
<stop offset="1" stop-color="#0B0B10"/>
</linearGradient>
<linearGradient id="paint1_linear_3328_732" x1="512" y1="0" x2="512" y2="1024" gradientUnits="userSpaceOnUse">
<stop stop-color="#313244"/>
<stop offset="1" stop-color="#0B0B10"/>
</linearGradient>
<linearGradient id="paint2_linear_3328_732" x1="512" y1="162" x2="512" y2="862" gradientUnits="userSpaceOnUse">
<stop stop-color="#AA43FF"/>
<stop offset="1" stop-color="#662899"/>
</linearGradient>
</defs>
</svg>
