<svg width="1024" height="1024" viewBox="0 0 1024 1024" fill="none" xmlns="http://www.w3.org/2000/svg">
<mask id="mask0_3323_67" style="mask-type:alpha" maskUnits="userSpaceOnUse" x="0" y="0" width="1024" height="1024">
<rect width="1024" height="1024" fill="url(#paint0_linear_3323_67)"/>
</mask>
<g mask="url(#mask0_3323_67)">
<rect width="1024" height="1024" rx="80" fill="url(#paint1_linear_3323_67)"/>
<path d="M51.2715 362H16.9952C7.60901 362 0 367.715 0 374.764V774.236C0 781.285 7.60901 787 16.9952 787H51.2715C60.6577 787 68.2667 781.285 68.2667 774.236V374.764C68.2667 367.715 60.6577 362 51.2715 362Z" fill="url(#paint2_linear_3323_67)"/>
<path d="M168.614 287H130.053C119.494 287 110.933 292.689 110.933 299.706V774.294C110.933 781.311 119.494 787 130.053 787H168.614C179.173 787 187.733 781.311 187.733 774.294V299.706C187.733 292.689 179.173 287 168.614 287Z" fill="url(#paint3_linear_3323_67)"/>
<path d="M288.08 403.667H249.52C238.96 403.667 230.4 409.337 230.4 416.331V774.336C230.4 781.33 238.96 787 249.52 787H288.08C298.64 787 307.2 781.33 307.2 774.336V416.331C307.2 409.337 298.64 403.667 288.08 403.667Z" fill="url(#paint4_linear_3323_67)"/>
<path d="M409.671 324.5H375.395C366.009 324.5 358.4 330.201 358.4 337.233V774.267C358.4 781.299 366.009 787 375.395 787H409.671C419.058 787 426.667 781.299 426.667 774.267V337.233C426.667 330.201 419.058 324.5 409.671 324.5Z" fill="url(#paint5_linear_3323_67)"/>
<path d="M520.605 478.667H486.329C476.942 478.667 469.333 484.367 469.333 491.399V774.267C469.333 781.299 476.942 787 486.329 787H520.605C529.991 787 537.6 781.299 537.6 774.267V491.399C537.6 484.367 529.991 478.667 520.605 478.667Z" fill="url(#paint6_linear_3323_67)"/>
<path d="M646.48 557.833H607.92C597.36 557.833 588.8 563.483 588.8 570.451V774.382C588.8 781.351 597.36 787 607.92 787H646.48C657.04 787 665.6 781.351 665.6 774.382V570.451C665.6 563.483 657.04 557.833 646.48 557.833Z" fill="url(#paint7_linear_3323_67)"/>
<path d="M774.48 670.333H735.92C725.36 670.333 716.8 676.085 716.8 683.181V774.152C716.8 781.248 725.36 787 735.92 787H774.48C785.04 787 793.6 781.248 793.6 774.152V683.181C793.6 676.085 785.04 670.333 774.48 670.333Z" fill="url(#paint8_linear_3323_67)"/>
<path d="M879.005 712H844.729C835.342 712 827.733 717.547 827.733 724.389V774.611C827.733 781.453 835.342 787 844.729 787H879.005C888.391 787 896 781.453 896 774.611V724.389C896 717.547 888.391 712 879.005 712Z" fill="url(#paint9_linear_3323_67)"/>
<path d="M1007 749.5H972.729C963.342 749.5 955.733 755.047 955.733 761.889V774.611C955.733 781.453 963.342 787 972.729 787H1007C1016.39 787 1024 781.453 1024 774.611V761.889C1024 755.047 1016.39 749.5 1007 749.5Z" fill="url(#paint10_linear_3323_67)"/>
<path d="M227.982 640.46C203.622 640.46 182.902 635.84 165.822 626.6C148.742 617.36 135.582 604.2 126.342 587.12C117.382 569.76 112.902 549.32 112.902 525.8C112.902 501.72 116.822 481 124.662 463.64C132.502 446.28 143.702 432.98 158.262 423.74C173.102 414.22 190.882 409.46 211.602 409.46C220.282 409.46 227.982 410.3 234.702 411.98C241.702 413.66 248.702 416.04 255.702 419.12V319.16L318.282 309.08V627.86C311.002 630.1 302.182 632.2 291.822 634.16C281.462 636.12 270.682 637.66 259.482 638.78C248.562 639.9 238.062 640.46 227.982 640.46ZM228.402 587.12C234.002 587.12 239.182 586.98 243.942 586.7C248.702 586.14 252.622 585.58 255.702 585.02V471.2C251.782 468.68 246.602 466.58 240.162 464.9C234.002 463.22 227.702 462.38 221.262 462.38C213.702 462.38 207.122 463.64 201.522 466.16C196.202 468.68 191.582 472.46 187.662 477.5C184.022 482.54 181.222 488.84 179.262 496.4C177.582 503.96 176.742 512.78 176.742 522.86C176.742 535.74 178.702 547.08 182.622 556.88C186.542 566.4 192.282 573.82 199.842 579.14C207.682 584.46 217.202 587.12 228.402 587.12ZM423.498 639.62C404.458 639.62 387.798 637.38 373.518 632.9C359.238 628.14 348.178 620.44 340.338 609.8C332.498 599.16 328.578 584.88 328.578 566.96C328.578 549.6 332.918 535.88 341.598 525.8C350.558 515.72 362.178 508.58 376.458 504.38C390.738 499.9 405.858 497.66 421.818 497.66C429.938 497.66 437.078 498.08 443.238 498.92C449.678 499.48 454.858 500.32 458.778 501.44V495.56C458.778 488.28 457.378 482.12 454.578 477.08C451.778 471.76 447.158 467.7 440.718 464.9C434.558 461.82 426.158 460.28 415.518 460.28C404.878 460.28 394.378 461.12 384.018 462.8C373.658 464.2 364.698 466.3 357.138 469.1L349.158 418.7C356.438 416.46 366.798 414.22 380.238 411.98C393.958 409.46 408.098 408.2 422.658 408.2C447.298 408.2 466.618 411.84 480.618 419.12C494.618 426.4 504.418 436.9 510.018 450.62C515.898 464.06 518.838 480.02 518.838 498.5V628.7C509.878 630.66 497.418 632.9 481.458 635.42C465.498 638.22 446.178 639.62 423.498 639.62ZM427.698 591.32C433.858 591.32 439.738 591.18 445.338 590.9C450.938 590.62 455.418 590.2 458.778 589.64V542.18C456.258 541.62 452.478 541.06 447.438 540.5C442.398 539.94 437.778 539.66 433.578 539.66C425.738 539.66 418.598 540.36 412.158 541.76C405.718 543.16 400.538 545.68 396.618 549.32C392.698 552.96 390.738 558.28 390.738 565.28C390.738 575.08 393.958 581.94 400.398 585.86C407.118 589.5 416.218 591.32 427.698 591.32ZM604.827 640.88C585.227 640.88 568.847 639.2 555.687 635.84C542.807 632.48 533.847 629.68 528.807 627.44L539.307 576.62C549.947 580.82 560.867 584.18 572.067 586.7C583.267 588.94 594.327 590.06 605.247 590.06C616.727 590.06 624.847 588.94 629.607 586.7C634.367 584.46 636.747 580.12 636.747 573.68C636.747 570.32 635.347 567.38 632.547 564.86C629.747 562.06 625.547 559.26 619.947 556.46C614.627 553.66 607.767 550.72 599.367 547.64C586.487 542.6 575.147 537.28 565.347 531.68C555.547 526.08 547.987 518.94 542.667 510.26C537.347 501.3 534.687 489.68 534.687 475.4C534.687 461.4 538.187 449.5 545.187 439.7C552.187 429.62 562.127 421.92 575.007 416.6C587.887 411 603.287 408.2 621.207 408.2C634.647 408.2 647.527 409.46 659.847 411.98C672.167 414.22 681.967 416.74 689.247 419.54L678.327 468.26C671.047 465.74 663.067 463.5 654.387 461.54C645.987 459.58 636.467 458.6 625.827 458.6C616.027 458.6 608.607 460 603.567 462.8C598.807 465.32 596.427 469.38 596.427 474.98C596.427 478.06 597.267 481 598.947 483.8C600.627 486.32 603.847 488.84 608.607 491.36C613.367 493.88 620.367 496.82 629.607 500.18C648.087 506.9 662.227 513.62 672.027 520.34C682.107 527.06 689.107 534.76 693.027 543.44C696.947 551.84 698.907 562.2 698.907 574.52C698.907 589.08 695.267 601.26 687.987 611.06C680.707 620.86 670.067 628.28 656.067 633.32C642.067 638.36 624.987 640.88 604.827 640.88ZM712.074 635V319.16L774.654 309.08V414.92C778.854 413.52 784.174 412.26 790.614 411.14C797.334 409.74 803.774 409.04 809.934 409.04C834.014 409.04 852.774 413.38 866.214 422.06C879.654 430.46 889.034 442.22 894.354 457.34C899.954 472.46 902.754 490.1 902.754 510.26V635H840.174V517.82C840.174 504.38 839.054 493.6 836.814 485.48C834.574 477.36 830.794 471.48 825.474 467.84C820.434 464.2 813.154 462.38 803.634 462.38C799.994 462.38 796.354 462.66 792.714 463.22C789.354 463.5 786.134 464.06 783.054 464.9C780.254 465.46 777.454 466.16 774.654 467V635H712.074Z" fill="#89B4FA"/>
</g>
<defs>
<linearGradient id="paint0_linear_3323_67" x1="512" y1="0" x2="512" y2="1024" gradientUnits="userSpaceOnUse">
<stop stop-color="#1E1E2E"/>
<stop offset="1" stop-color="#0B0B10"/>
</linearGradient>
<linearGradient id="paint1_linear_3323_67" x1="512" y1="0" x2="512" y2="1024" gradientUnits="userSpaceOnUse">
<stop stop-color="#1E1E2E"/>
<stop offset="1" stop-color="#0B0B10"/>
</linearGradient>
<linearGradient id="paint2_linear_3323_67" x1="512" y1="287" x2="512" y2="787" gradientUnits="userSpaceOnUse">
<stop stop-color="#A6E3A1"/>
<stop offset="1"/>
</linearGradient>
<linearGradient id="paint3_linear_3323_67" x1="512" y1="287" x2="512" y2="787" gradientUnits="userSpaceOnUse">
<stop stop-color="#A6E3A1"/>
<stop offset="1"/>
</linearGradient>
<linearGradient id="paint4_linear_3323_67" x1="512" y1="287" x2="512" y2="787" gradientUnits="userSpaceOnUse">
<stop stop-color="#A6E3A1"/>
<stop offset="1"/>
</linearGradient>
<linearGradient id="paint5_linear_3323_67" x1="512" y1="287" x2="512" y2="787" gradientUnits="userSpaceOnUse">
<stop stop-color="#A6E3A1"/>
<stop offset="1"/>
</linearGradient>
<linearGradient id="paint6_linear_3323_67" x1="512" y1="287" x2="512" y2="787" gradientUnits="userSpaceOnUse">
<stop stop-color="#A6E3A1"/>
<stop offset="1"/>
</linearGradient>
<linearGradient id="paint7_linear_3323_67" x1="512" y1="287" x2="512" y2="787" gradientUnits="userSpaceOnUse">
<stop stop-color="#A6E3A1"/>
<stop offset="1"/>
</linearGradient>
<linearGradient id="paint8_linear_3323_67" x1="512" y1="287" x2="512" y2="787" gradientUnits="userSpaceOnUse">
<stop stop-color="#A6E3A1"/>
<stop offset="1"/>
</linearGradient>
<linearGradient id="paint9_linear_3323_67" x1="512" y1="287" x2="512" y2="787" gradientUnits="userSpaceOnUse">
<stop stop-color="#A6E3A1"/>
<stop offset="1"/>
</linearGradient>
<linearGradient id="paint10_linear_3323_67" x1="512" y1="287" x2="512" y2="787" gradientUnits="userSpaceOnUse">
<stop stop-color="#A6E3A1"/>
<stop offset="1"/>
</linearGradient>
</defs>
</svg>
