<svg width="1024" height="1024" viewBox="0 0 1024 1024" fill="none" xmlns="http://www.w3.org/2000/svg">
<mask id="mask0_3328_732" style="mask-type:alpha" maskUnits="userSpaceOnUse" x="0" y="0" width="1024" height="1024">
<rect width="1024" height="1024" fill="url(#paint0_linear_3328_732)"/>
</mask>
<g mask="url(#mask0_3328_732)">
<rect width="1024" height="1024" rx="80" fill="url(#paint1_linear_3328_732)" fill-opacity="0.8"/>
<path d="M512 592.829C636.264 592.829 737 492.131 737 367.914C737 243.698 636.264 143 512 143C387.736 143 287 243.698 287 367.914C287 492.131 387.736 592.829 512 592.829Z" fill="#5D5FEF" fill-opacity="0.8"/>
<path d="M613.953 367.914H406.531V881H613.953V367.914Z" fill="#5D5FEF" fill-opacity="0.8"/>
<path d="M91.1535 772.7V481.64C98.7135 479.4 107.534 477.3 117.614 475.34C127.974 473.38 138.614 471.84 149.534 470.72C160.734 469.6 171.374 469.04 181.454 469.04C205.814 469.04 226.534 473.8 243.614 483.32C260.694 492.56 273.714 505.86 282.674 523.22C291.914 540.58 296.534 561.02 296.534 584.54C296.534 607.22 292.754 627.24 285.194 644.6C277.914 661.68 267.134 675.12 252.854 684.92C238.574 694.44 220.934 699.2 199.934 699.2C191.254 699.2 183.134 698.36 175.574 696.68C168.014 695 160.734 692.62 153.734 689.54V772.7H91.1535ZM188.174 646.28C195.734 646.28 202.174 645.02 207.494 642.5C213.094 639.98 217.714 636.2 221.354 631.16C225.274 626.12 228.074 619.96 229.754 612.68C231.714 605.12 232.694 596.3 232.694 586.22C232.694 573.34 230.734 562.14 226.814 552.62C222.894 543.1 217.154 535.68 209.594 530.36C202.034 525.04 192.514 522.38 181.034 522.38C175.434 522.38 170.254 522.66 165.494 523.22C160.734 523.5 156.814 523.92 153.734 524.48V637.46C157.654 639.98 162.694 642.08 168.854 643.76C175.294 645.44 181.734 646.28 188.174 646.28ZM409.31 700.88C387.75 700.88 368.71 695.98 352.19 686.18C335.95 676.38 323.21 662.8 313.97 645.44C305.01 627.8 300.53 607.36 300.53 584.12C300.53 560.88 305.15 540.58 314.39 523.22C323.91 505.86 336.93 492.42 353.45 482.9C369.97 473.1 388.59 468.2 409.31 468.2C430.59 468.2 449.35 473.1 465.59 482.9C481.83 492.42 494.57 505.86 503.81 523.22C513.05 540.58 517.67 560.88 517.67 584.12C517.67 607.36 513.19 627.8 504.23 645.44C495.27 662.8 482.67 676.38 466.43 686.18C450.47 695.98 431.43 700.88 409.31 700.88ZM409.31 647.12C418.83 647.12 426.81 644.6 433.25 639.56C439.97 634.24 445.01 626.96 448.37 617.72C452.01 608.2 453.83 597 453.83 584.12C453.83 571.24 452.01 560.18 448.37 550.94C445.01 541.7 439.97 534.56 433.25 529.52C426.81 524.48 418.83 521.96 409.31 521.96C399.79 521.96 391.67 524.48 384.95 529.52C378.23 534.56 373.05 541.7 369.41 550.94C366.05 560.18 364.37 571.24 364.37 584.12C364.37 597 366.05 608.2 369.41 617.72C373.05 626.96 378.23 634.24 384.95 639.56C391.67 644.6 399.79 647.12 409.31 647.12ZM532.547 695V481.64C543.187 478.56 556.907 475.76 573.707 473.24C590.507 470.44 608.147 469.04 626.627 469.04C651.827 469.04 671.427 473.38 685.427 482.06C699.427 490.46 709.227 502.22 714.827 517.34C720.427 532.46 723.227 550.1 723.227 570.26V695H660.647V577.82C660.647 564.38 659.527 553.6 657.287 545.48C655.047 537.36 651.127 531.48 645.527 527.84C640.207 524.2 632.647 522.38 622.847 522.38C618.367 522.38 613.607 522.66 608.567 523.22C603.527 523.5 599.047 523.92 595.127 524.48V695H532.547ZM824.391 773.96C810.951 773.96 797.511 772.7 784.071 770.18C770.631 767.94 758.171 764.86 746.691 760.94L757.611 708.44C767.411 712.36 777.631 715.44 788.271 717.68C799.191 719.92 811.511 721.04 825.231 721.04C837.271 721.04 846.791 719.22 853.791 715.58C861.071 712.22 866.251 707.32 869.331 700.88C872.691 694.44 874.371 687.16 874.371 679.04V671.06C867.651 674.14 860.651 676.52 853.371 678.2C846.371 679.6 838.671 680.3 830.271 680.3C810.111 680.3 792.891 676.24 778.611 668.12C764.611 660 753.971 648.24 746.691 632.84C739.411 617.44 735.771 598.96 735.771 577.4C735.771 555.56 740.251 536.52 749.211 520.28C758.171 504.04 771.051 491.44 787.851 482.48C804.651 473.52 824.811 469.04 848.331 469.04C863.171 469.04 878.851 470.3 895.371 472.82C911.891 475.34 925.751 478.28 936.951 481.64V667.28C936.951 703.4 927.711 730.14 909.231 747.5C891.031 765.14 862.751 773.96 824.391 773.96ZM842.031 629.9C848.471 629.9 854.491 629.06 860.091 627.38C865.691 625.7 870.451 623.74 874.371 621.5V521.54C871.291 520.98 867.651 520.56 863.451 520.28C859.251 519.72 854.351 519.44 848.751 519.44C837.831 519.44 828.731 521.96 821.451 527C814.171 532.04 808.711 538.9 805.071 547.58C801.431 556.26 799.611 566.2 799.611 577.4C799.611 586.08 800.451 593.78 802.131 600.5C804.091 606.94 806.751 612.4 810.111 616.88C813.751 621.08 818.231 624.3 823.551 626.54C828.871 628.78 835.031 629.9 842.031 629.9Z" fill="white"/>
</g>
<defs>
<linearGradient id="paint0_linear_3328_732" x1="512" y1="0" x2="512" y2="1024" gradientUnits="userSpaceOnUse">
<stop stop-color="#313244"/>
<stop offset="1" stop-color="#0B0B10"/>
</linearGradient>
<linearGradient id="paint1_linear_3328_732" x1="512" y1="0" x2="512" y2="1024" gradientUnits="userSpaceOnUse">
<stop stop-color="#AA43FF"/>
<stop offset="1" stop-color="#5D5FEF"/>
</linearGradient>
</defs>
</svg>
