<svg width="1024" height="1024" viewBox="0 0 1024 1024" fill="none" xmlns="http://www.w3.org/2000/svg">
<mask id="mask0_3323_46" style="mask-type:alpha" maskUnits="userSpaceOnUse" x="0" y="0" width="1024" height="1024">
<rect width="1024" height="1024" fill="black"/>
</mask>
<g mask="url(#mask0_3323_46)">
<path d="M944 0H80C35.8172 0 0 35.8172 0 80V944C0 988.183 35.8172 1024 80 1024H944C988.183 1024 1024 988.183 1024 944V80C1024 35.8172 988.183 0 944 0Z" fill="#080808"/>
<path d="M512 1024C794.77 1024 1024 794.77 1024 512C1024 229.23 794.77 0 512 0C229.23 0 0 229.23 0 512C0 794.77 229.23 1024 512 1024Z" fill="black"/>
<path d="M512 950.857C754.374 950.857 950.857 754.374 950.857 512C950.857 269.625 754.374 73.1425 512 73.1425C269.626 73.1425 73.1428 269.625 73.1428 512C73.1428 754.374 269.626 950.857 512 950.857Z" fill="black"/>
<path d="M512 877.715C713.978 877.715 877.714 713.979 877.714 512.001C877.714 310.022 713.978 146.286 512 146.286C310.021 146.286 146.286 310.022 146.286 512.001C146.286 713.979 310.021 877.715 512 877.715Z" fill="black"/>
<path opacity="0.9" d="M512 981.485C772.552 981.485 983.771 770.266 983.771 509.714C983.771 249.162 772.552 37.9425 512 37.9425C251.448 37.9425 40.2284 249.162 40.2284 509.714C40.2284 770.266 251.448 981.485 512 981.485Z" fill="url(#paint0_radial_3323_46)" stroke="#A6E3A1" stroke-width="0.875"/>
<path d="M512 922.514C739.983 922.514 924.8 737.697 924.8 509.714C924.8 281.731 739.983 96.9137 512 96.9137C284.017 96.9137 99.2 281.731 99.2 509.714C99.2 737.697 284.017 922.514 512 922.514Z" stroke="#CDD6F4" stroke-width="0.7"/>
<path d="M512 863.543C707.414 863.543 865.829 705.129 865.829 509.715C865.829 314.301 707.414 155.886 512 155.886C316.586 155.886 158.171 314.301 158.171 509.715C158.171 705.129 316.586 863.543 512 863.543Z" stroke="#CDD6F4" stroke-width="0.7"/>
<path d="M89.1535 695.7V404.64C96.7135 402.4 105.534 400.3 115.614 398.34C125.974 396.38 136.614 394.84 147.534 393.72C158.734 392.6 169.374 392.04 179.454 392.04C203.814 392.04 224.534 396.8 241.614 406.32C258.694 415.56 271.714 428.86 280.674 446.22C289.914 463.58 294.534 484.02 294.534 507.54C294.534 530.22 290.754 550.24 283.194 567.6C275.914 584.68 265.134 598.12 250.854 607.92C236.574 617.44 218.934 622.2 197.934 622.2C189.254 622.2 181.134 621.36 173.574 619.68C166.014 618 158.734 615.62 151.734 612.54V695.7H89.1535ZM186.174 569.28C193.734 569.28 200.174 568.02 205.494 565.5C211.094 562.98 215.714 559.2 219.354 554.16C223.274 549.12 226.074 542.96 227.754 535.68C229.714 528.12 230.694 519.3 230.694 509.22C230.694 496.34 228.734 485.14 224.814 475.62C220.894 466.1 215.154 458.68 207.594 453.36C200.034 448.04 190.514 445.38 179.034 445.38C173.434 445.38 168.254 445.66 163.494 446.22C158.734 446.5 154.814 446.92 151.734 447.48V560.46C155.654 562.98 160.694 565.08 166.854 566.76C173.294 568.44 179.734 569.28 186.174 569.28ZM407.31 623.88C385.75 623.88 366.71 618.98 350.19 609.18C333.95 599.38 321.21 585.8 311.97 568.44C303.01 550.8 298.53 530.36 298.53 507.12C298.53 483.88 303.15 463.58 312.39 446.22C321.91 428.86 334.93 415.42 351.45 405.9C367.97 396.1 386.59 391.2 407.31 391.2C428.59 391.2 447.35 396.1 463.59 405.9C479.83 415.42 492.57 428.86 501.81 446.22C511.05 463.58 515.67 483.88 515.67 507.12C515.67 530.36 511.19 550.8 502.23 568.44C493.27 585.8 480.67 599.38 464.43 609.18C448.47 618.98 429.43 623.88 407.31 623.88ZM407.31 570.12C416.83 570.12 424.81 567.6 431.25 562.56C437.97 557.24 443.01 549.96 446.37 540.72C450.01 531.2 451.83 520 451.83 507.12C451.83 494.24 450.01 483.18 446.37 473.94C443.01 464.7 437.97 457.56 431.25 452.52C424.81 447.48 416.83 444.96 407.31 444.96C397.79 444.96 389.67 447.48 382.95 452.52C376.23 457.56 371.05 464.7 367.41 473.94C364.05 483.18 362.37 494.24 362.37 507.12C362.37 520 364.05 531.2 367.41 540.72C371.05 549.96 376.23 557.24 382.95 562.56C389.67 567.6 397.79 570.12 407.31 570.12ZM530.547 618V404.64C541.187 401.56 554.907 398.76 571.707 396.24C588.507 393.44 606.147 392.04 624.627 392.04C649.827 392.04 669.427 396.38 683.427 405.06C697.427 413.46 707.227 425.22 712.827 440.34C718.427 455.46 721.227 473.1 721.227 493.26V618H658.647V500.82C658.647 487.38 657.527 476.6 655.287 468.48C653.047 460.36 649.127 454.48 643.527 450.84C638.207 447.2 630.647 445.38 620.847 445.38C616.367 445.38 611.607 445.66 606.567 446.22C601.527 446.5 597.047 446.92 593.127 447.48V618H530.547ZM822.391 696.96C808.951 696.96 795.511 695.7 782.071 693.18C768.631 690.94 756.171 687.86 744.691 683.94L755.611 631.44C765.411 635.36 775.631 638.44 786.271 640.68C797.191 642.92 809.511 644.04 823.231 644.04C835.271 644.04 844.791 642.22 851.791 638.58C859.071 635.22 864.251 630.32 867.331 623.88C870.691 617.44 872.371 610.16 872.371 602.04V594.06C865.651 597.14 858.651 599.52 851.371 601.2C844.371 602.6 836.671 603.3 828.271 603.3C808.111 603.3 790.891 599.24 776.611 591.12C762.611 583 751.971 571.24 744.691 555.84C737.411 540.44 733.771 521.96 733.771 500.4C733.771 478.56 738.251 459.52 747.211 443.28C756.171 427.04 769.051 414.44 785.851 405.48C802.651 396.52 822.811 392.04 846.331 392.04C861.171 392.04 876.851 393.3 893.371 395.82C909.891 398.34 923.751 401.28 934.951 404.64V590.28C934.951 626.4 925.711 653.14 907.231 670.5C889.031 688.14 860.751 696.96 822.391 696.96ZM840.031 552.9C846.471 552.9 852.491 552.06 858.091 550.38C863.691 548.7 868.451 546.74 872.371 544.5V444.54C869.291 443.98 865.651 443.56 861.451 443.28C857.251 442.72 852.351 442.44 846.751 442.44C835.831 442.44 826.731 444.96 819.451 450C812.171 455.04 806.711 461.9 803.071 470.58C799.431 479.26 797.611 489.2 797.611 500.4C797.611 509.08 798.451 516.78 800.131 523.5C802.091 529.94 804.751 535.4 808.111 539.88C811.751 544.08 816.231 547.3 821.551 549.54C826.871 551.78 833.031 552.9 840.031 552.9Z" fill="#89B4FA"/>
</g>
<defs>
<radialGradient id="paint0_radial_3323_46" cx="0" cy="0" r="1" gradientUnits="userSpaceOnUse" gradientTransform="translate(512 509.714) scale(475.457)">
<stop stop-color="#313244"/>
<stop offset="0.8" stop-color="#181825"/>
<stop offset="1" stop-color="#1E1E2E"/>
</radialGradient>
</defs>
</svg>
