<svg width="1024" height="1024" viewBox="0 0 1024 1024" fill="none" xmlns="http://www.w3.org/2000/svg">
<mask id="mask0_3328_709" style="mask-type:alpha" maskUnits="userSpaceOnUse" x="0" y="0" width="1024" height="1024">
<rect width="1024" height="1024" fill="url(#paint0_linear_3328_709)"/>
</mask>
<g mask="url(#mask0_3328_709)">
<rect width="1024" height="1024" rx="80" fill="url(#paint1_linear_3328_709)"/>
<path d="M702 162H322C233.634 162 162 233.634 162 322V702C162 790.366 233.634 862 322 862H702C790.366 862 862 790.366 862 702V322C862 233.634 790.366 162 702 162Z" fill="url(#paint2_linear_3328_709)" fill-opacity="0.8"/>
<path d="M227.982 770.46C203.622 770.46 182.902 765.84 165.822 756.6C148.742 747.36 135.582 734.2 126.342 717.12C117.382 699.76 112.902 679.32 112.902 655.8C112.902 631.72 116.822 611 124.662 593.64C132.502 576.28 143.702 562.98 158.262 553.74C173.102 544.22 190.882 539.46 211.602 539.46C220.282 539.46 227.982 540.3 234.702 541.98C241.702 543.66 248.702 546.04 255.702 549.12V449.16L318.282 439.08V757.86C311.002 760.1 302.182 762.2 291.822 764.16C281.462 766.12 270.682 767.66 259.482 768.78C248.562 769.9 238.062 770.46 227.982 770.46ZM228.402 717.12C234.002 717.12 239.182 716.98 243.942 716.7C248.702 716.14 252.622 715.58 255.702 715.02V601.2C251.782 598.68 246.602 596.58 240.162 594.9C234.002 593.22 227.702 592.38 221.262 592.38C213.702 592.38 207.122 593.64 201.522 596.16C196.202 598.68 191.582 602.46 187.662 607.5C184.022 612.54 181.222 618.84 179.262 626.4C177.582 633.96 176.742 642.78 176.742 652.86C176.742 665.74 178.702 677.08 182.622 686.88C186.542 696.4 192.282 703.82 199.842 709.14C207.682 714.46 217.202 717.12 228.402 717.12ZM423.498 769.62C404.458 769.62 387.798 767.38 373.518 762.9C359.238 758.14 348.178 750.44 340.338 739.8C332.498 729.16 328.578 714.88 328.578 696.96C328.578 679.6 332.918 665.88 341.598 655.8C350.558 645.72 362.178 638.58 376.458 634.38C390.738 629.9 405.858 627.66 421.818 627.66C429.938 627.66 437.078 628.08 443.238 628.92C449.678 629.48 454.858 630.32 458.778 631.44V625.56C458.778 618.28 457.378 612.12 454.578 607.08C451.778 601.76 447.158 597.7 440.718 594.9C434.558 591.82 426.158 590.28 415.518 590.28C404.878 590.28 394.378 591.12 384.018 592.8C373.658 594.2 364.698 596.3 357.138 599.1L349.158 548.7C356.438 546.46 366.798 544.22 380.238 541.98C393.958 539.46 408.098 538.2 422.658 538.2C447.298 538.2 466.618 541.84 480.618 549.12C494.618 556.4 504.418 566.9 510.018 580.62C515.898 594.06 518.838 610.02 518.838 628.5V758.7C509.878 760.66 497.418 762.9 481.458 765.42C465.498 768.22 446.178 769.62 423.498 769.62ZM427.698 721.32C433.858 721.32 439.738 721.18 445.338 720.9C450.938 720.62 455.418 720.2 458.778 719.64V672.18C456.258 671.62 452.478 671.06 447.438 670.5C442.398 669.94 437.778 669.66 433.578 669.66C425.738 669.66 418.598 670.36 412.158 671.76C405.718 673.16 400.538 675.68 396.618 679.32C392.698 682.96 390.738 688.28 390.738 695.28C390.738 705.08 393.958 711.94 400.398 715.86C407.118 719.5 416.218 721.32 427.698 721.32ZM604.827 770.88C585.227 770.88 568.847 769.2 555.687 765.84C542.807 762.48 533.847 759.68 528.807 757.44L539.307 706.62C549.947 710.82 560.867 714.18 572.067 716.7C583.267 718.94 594.327 720.06 605.247 720.06C616.727 720.06 624.847 718.94 629.607 716.7C634.367 714.46 636.747 710.12 636.747 703.68C636.747 700.32 635.347 697.38 632.547 694.86C629.747 692.06 625.547 689.26 619.947 686.46C614.627 683.66 607.767 680.72 599.367 677.64C586.487 672.6 575.147 667.28 565.347 661.68C555.547 656.08 547.987 648.94 542.667 640.26C537.347 631.3 534.687 619.68 534.687 605.4C534.687 591.4 538.187 579.5 545.187 569.7C552.187 559.62 562.127 551.92 575.007 546.6C587.887 541 603.287 538.2 621.207 538.2C634.647 538.2 647.527 539.46 659.847 541.98C672.167 544.22 681.967 546.74 689.247 549.54L678.327 598.26C671.047 595.74 663.067 593.5 654.387 591.54C645.987 589.58 636.467 588.6 625.827 588.6C616.027 588.6 608.607 590 603.567 592.8C598.807 595.32 596.427 599.38 596.427 604.98C596.427 608.06 597.267 611 598.947 613.8C600.627 616.32 603.847 618.84 608.607 621.36C613.367 623.88 620.367 626.82 629.607 630.18C648.087 636.9 662.227 643.62 672.027 650.34C682.107 657.06 689.107 664.76 693.027 673.44C696.947 681.84 698.907 692.2 698.907 704.52C698.907 719.08 695.267 731.26 687.987 741.06C680.707 750.86 670.067 758.28 656.067 763.32C642.067 768.36 624.987 770.88 604.827 770.88ZM712.074 765V449.16L774.654 439.08V544.92C778.854 543.52 784.174 542.26 790.614 541.14C797.334 539.74 803.774 539.04 809.934 539.04C834.014 539.04 852.774 543.38 866.214 552.06C879.654 560.46 889.034 572.22 894.354 587.34C899.954 602.46 902.754 620.1 902.754 640.26V765H840.174V647.82C840.174 634.38 839.054 623.6 836.814 615.48C834.574 607.36 830.794 601.48 825.474 597.84C820.434 594.2 813.154 592.38 803.634 592.38C799.994 592.38 796.354 592.66 792.714 593.22C789.354 593.5 786.134 594.06 783.054 594.9C780.254 595.46 777.454 596.16 774.654 597V765H712.074Z" fill="#DDB4FF"/>
<path d="M89.1535 552.7V261.64C96.7135 259.4 105.534 257.3 115.614 255.34C125.974 253.38 136.614 251.84 147.534 250.72C158.734 249.6 169.374 249.04 179.454 249.04C203.814 249.04 224.534 253.8 241.614 263.32C258.694 272.56 271.714 285.86 280.674 303.22C289.914 320.58 294.534 341.02 294.534 364.54C294.534 387.22 290.754 407.24 283.194 424.6C275.914 441.68 265.134 455.12 250.854 464.92C236.574 474.44 218.934 479.2 197.934 479.2C189.254 479.2 181.134 478.36 173.574 476.68C166.014 475 158.734 472.62 151.734 469.54V552.7H89.1535ZM186.174 426.28C193.734 426.28 200.174 425.02 205.494 422.5C211.094 419.98 215.714 416.2 219.354 411.16C223.274 406.12 226.074 399.96 227.754 392.68C229.714 385.12 230.694 376.3 230.694 366.22C230.694 353.34 228.734 342.14 224.814 332.62C220.894 323.1 215.154 315.68 207.594 310.36C200.034 305.04 190.514 302.38 179.034 302.38C173.434 302.38 168.254 302.66 163.494 303.22C158.734 303.5 154.814 303.92 151.734 304.48V417.46C155.654 419.98 160.694 422.08 166.854 423.76C173.294 425.44 179.734 426.28 186.174 426.28ZM407.31 480.88C385.75 480.88 366.71 475.98 350.19 466.18C333.95 456.38 321.21 442.8 311.97 425.44C303.01 407.8 298.53 387.36 298.53 364.12C298.53 340.88 303.15 320.58 312.39 303.22C321.91 285.86 334.93 272.42 351.45 262.9C367.97 253.1 386.59 248.2 407.31 248.2C428.59 248.2 447.35 253.1 463.59 262.9C479.83 272.42 492.57 285.86 501.81 303.22C511.05 320.58 515.67 340.88 515.67 364.12C515.67 387.36 511.19 407.8 502.23 425.44C493.27 442.8 480.67 456.38 464.43 466.18C448.47 475.98 429.43 480.88 407.31 480.88ZM407.31 427.12C416.83 427.12 424.81 424.6 431.25 419.56C437.97 414.24 443.01 406.96 446.37 397.72C450.01 388.2 451.83 377 451.83 364.12C451.83 351.24 450.01 340.18 446.37 330.94C443.01 321.7 437.97 314.56 431.25 309.52C424.81 304.48 416.83 301.96 407.31 301.96C397.79 301.96 389.67 304.48 382.95 309.52C376.23 314.56 371.05 321.7 367.41 330.94C364.05 340.18 362.37 351.24 362.37 364.12C362.37 377 364.05 388.2 367.41 397.72C371.05 406.96 376.23 414.24 382.95 419.56C389.67 424.6 397.79 427.12 407.31 427.12ZM530.547 475V261.64C541.187 258.56 554.907 255.76 571.707 253.24C588.507 250.44 606.147 249.04 624.627 249.04C649.827 249.04 669.427 253.38 683.427 262.06C697.427 270.46 707.227 282.22 712.827 297.34C718.427 312.46 721.227 330.1 721.227 350.26V475H658.647V357.82C658.647 344.38 657.527 333.6 655.287 325.48C653.047 317.36 649.127 311.48 643.527 307.84C638.207 304.2 630.647 302.38 620.847 302.38C616.367 302.38 611.607 302.66 606.567 303.22C601.527 303.5 597.047 303.92 593.127 304.48V475H530.547ZM822.391 553.96C808.951 553.96 795.511 552.7 782.071 550.18C768.631 547.94 756.171 544.86 744.691 540.94L755.611 488.44C765.411 492.36 775.631 495.44 786.271 497.68C797.191 499.92 809.511 501.04 823.231 501.04C835.271 501.04 844.791 499.22 851.791 495.58C859.071 492.22 864.251 487.32 867.331 480.88C870.691 474.44 872.371 467.16 872.371 459.04V451.06C865.651 454.14 858.651 456.52 851.371 458.2C844.371 459.6 836.671 460.3 828.271 460.3C808.111 460.3 790.891 456.24 776.611 448.12C762.611 440 751.971 428.24 744.691 412.84C737.411 397.44 733.771 378.96 733.771 357.4C733.771 335.56 738.251 316.52 747.211 300.28C756.171 284.04 769.051 271.44 785.851 262.48C802.651 253.52 822.811 249.04 846.331 249.04C861.171 249.04 876.851 250.3 893.371 252.82C909.891 255.34 923.751 258.28 934.951 261.64V447.28C934.951 483.4 925.711 510.14 907.231 527.5C889.031 545.14 860.751 553.96 822.391 553.96ZM840.031 409.9C846.471 409.9 852.491 409.06 858.091 407.38C863.691 405.7 868.451 403.74 872.371 401.5V301.54C869.291 300.98 865.651 300.56 861.451 300.28C857.251 299.72 852.351 299.44 846.751 299.44C835.831 299.44 826.731 301.96 819.451 307C812.171 312.04 806.711 318.9 803.071 327.58C799.431 336.26 797.611 346.2 797.611 357.4C797.611 366.08 798.451 373.78 800.131 380.5C802.091 386.94 804.751 392.4 808.111 396.88C811.751 401.08 816.231 404.3 821.551 406.54C826.871 408.78 833.031 409.9 840.031 409.9Z" fill="#89B4FA"/>
</g>
<defs>
<linearGradient id="paint0_linear_3328_709" x1="512" y1="0" x2="512" y2="1024" gradientUnits="userSpaceOnUse">
<stop stop-color="#1E1E2E"/>
<stop offset="1" stop-color="#0B0B10"/>
</linearGradient>
<linearGradient id="paint1_linear_3328_709" x1="512" y1="0" x2="512" y2="1024" gradientUnits="userSpaceOnUse">
<stop stop-color="#1E1E2E"/>
<stop offset="1" stop-color="#0B0B10"/>
</linearGradient>
<linearGradient id="paint2_linear_3328_709" x1="512" y1="162" x2="512" y2="862" gradientUnits="userSpaceOnUse">
<stop stop-color="#AA43FF"/>
<stop offset="1" stop-color="#662899"/>
</linearGradient>
</defs>
</svg>
