<svg width="1024" height="1024" viewBox="0 0 1024 1024" fill="none" xmlns="http://www.w3.org/2000/svg">
<rect width="1024" height="1024" rx="80" fill="url(#paint0_linear_3328_709)"/>
<path d="M823 553H713C624.634 553 553 624.634 553 713V823C553 911.366 624.634 983 713 983H823C911.366 983 983 911.366 983 823V713C983 624.634 911.366 553 823 553Z" fill="#5D5FEF"/>
<path d="M311 553H201C112.634 553 41 624.634 41 713V823C41 911.366 112.634 983 201 983H311C399.366 983 471 911.366 471 823V713C471 624.634 399.366 553 311 553Z" fill="#5D5FEF"/>
<path d="M823 41H713C624.634 41 553 112.634 553 201V311C553 399.366 624.634 471 713 471H823C911.366 471 983 399.366 983 311V201C983 112.634 911.366 41 823 41Z" fill="#5D5FEF"/>
<path d="M311 41H201C112.634 41 41 112.634 41 201V311C41 399.366 112.634 471 201 471H311C399.366 471 471 399.366 471 311V201C471 112.634 399.366 41 311 41Z" fill="#5D5FEF"/>
<path d="M89.1535 772.7V481.64C96.7135 479.4 105.534 477.3 115.614 475.34C125.974 473.38 136.614 471.84 147.534 470.72C158.734 469.6 169.374 469.04 179.454 469.04C203.814 469.04 224.534 473.8 241.614 483.32C258.694 492.56 271.714 505.86 280.674 523.22C289.914 540.58 294.534 561.02 294.534 584.54C294.534 607.22 290.754 627.24 283.194 644.6C275.914 661.68 265.134 675.12 250.854 684.92C236.574 694.44 218.934 699.2 197.934 699.2C189.254 699.2 181.134 698.36 173.574 696.68C166.014 695 158.734 692.62 151.734 689.54V772.7H89.1535ZM186.174 646.28C193.734 646.28 200.174 645.02 205.494 642.5C211.094 639.98 215.714 636.2 219.354 631.16C223.274 626.12 226.074 619.96 227.754 612.68C229.714 605.12 230.694 596.3 230.694 586.22C230.694 573.34 228.734 562.14 224.814 552.62C220.894 543.1 215.154 535.68 207.594 530.36C200.034 525.04 190.514 522.38 179.034 522.38C173.434 522.38 168.254 522.66 163.494 523.22C158.734 523.5 154.814 523.92 151.734 524.48V637.46C155.654 639.98 160.694 642.08 166.854 643.76C173.294 645.44 179.734 646.28 186.174 646.28ZM407.31 700.88C385.75 700.88 366.71 695.98 350.19 686.18C333.95 676.38 321.21 662.8 311.97 645.44C303.01 627.8 298.53 607.36 298.53 584.12C298.53 560.88 303.15 540.58 312.39 523.22C321.91 505.86 334.93 492.42 351.45 482.9C367.97 473.1 386.59 468.2 407.31 468.2C428.59 468.2 447.35 473.1 463.59 482.9C479.83 492.42 492.57 505.86 501.81 523.22C511.05 540.58 515.67 560.88 515.67 584.12C515.67 607.36 511.19 627.8 502.23 645.44C493.27 662.8 480.67 676.38 464.43 686.18C448.47 695.98 429.43 700.88 407.31 700.88ZM407.31 647.12C416.83 647.12 424.81 644.6 431.25 639.56C437.97 634.24 443.01 626.96 446.37 617.72C450.01 608.2 451.83 597 451.83 584.12C451.83 571.24 450.01 560.18 446.37 550.94C443.01 541.7 437.97 534.56 431.25 529.52C424.81 524.48 416.83 521.96 407.31 521.96C397.79 521.96 389.67 524.48 382.95 529.52C376.23 534.56 371.05 541.7 367.41 550.94C364.05 560.18 362.37 571.24 362.37 584.12C362.37 597 364.05 608.2 367.41 617.72C371.05 626.96 376.23 634.24 382.95 639.56C389.67 644.6 397.79 647.12 407.31 647.12ZM530.547 695V481.64C541.187 478.56 554.907 475.76 571.707 473.24C588.507 470.44 606.147 469.04 624.627 469.04C649.827 469.04 669.427 473.38 683.427 482.06C697.427 490.46 707.227 502.22 712.827 517.34C718.427 532.46 721.227 550.1 721.227 570.26V695H658.647V577.82C658.647 564.38 657.527 553.6 655.287 545.48C653.047 537.36 649.127 531.48 643.527 527.84C638.207 524.2 630.647 522.38 620.847 522.38C616.367 522.38 611.607 522.66 606.567 523.22C601.527 523.5 597.047 523.92 593.127 524.48V695H530.547ZM822.391 773.96C808.951 773.96 795.511 772.7 782.071 770.18C768.631 767.94 756.171 764.86 744.691 760.94L755.611 708.44C765.411 712.36 775.631 715.44 786.271 717.68C797.191 719.92 809.511 721.04 823.231 721.04C835.271 721.04 844.791 719.22 851.791 715.58C859.071 712.22 864.251 707.32 867.331 700.88C870.691 694.44 872.371 687.16 872.371 679.04V671.06C865.651 674.14 858.651 676.52 851.371 678.2C844.371 679.6 836.671 680.3 828.271 680.3C808.111 680.3 790.891 676.24 776.611 668.12C762.611 660 751.971 648.24 744.691 632.84C737.411 617.44 733.771 598.96 733.771 577.4C733.771 555.56 738.251 536.52 747.211 520.28C756.171 504.04 769.051 491.44 785.851 482.48C802.651 473.52 822.811 469.04 846.331 469.04C861.171 469.04 876.851 470.3 893.371 472.82C909.891 475.34 923.751 478.28 934.951 481.64V667.28C934.951 703.4 925.711 730.14 907.231 747.5C889.031 765.14 860.751 773.96 822.391 773.96ZM840.031 629.9C846.471 629.9 852.491 629.06 858.091 627.38C863.691 625.7 868.451 623.74 872.371 621.5V521.54C869.291 520.98 865.651 520.56 861.451 520.28C857.251 519.72 852.351 519.44 846.751 519.44C835.831 519.44 826.731 521.96 819.451 527C812.171 532.04 806.711 538.9 803.071 547.58C799.431 556.26 797.611 566.2 797.611 577.4C797.611 586.08 798.451 593.78 800.131 600.5C802.091 606.94 804.751 612.4 808.111 616.88C811.751 621.08 816.231 624.3 821.551 626.54C826.871 628.78 833.031 629.9 840.031 629.9Z" fill="white"/>
<defs>
<linearGradient id="paint0_linear_3328_709" x1="512" y1="0" x2="512" y2="1024" gradientUnits="userSpaceOnUse">
<stop stop-color="#AA43FF"/>
<stop offset="1" stop-color="#5D5FEF"/>
</linearGradient>
</defs>
</svg>
